<svg id="Ebene_1" xmlns="http://www.w3.org/2000/svg" viewBox="0 0 80 80"><style>.st0{fill:#555}</style><path class="st0" d="M50.6 7.5c-5.6 0-11.2 2.1-15.5 6.4-8.2 8.2-8.5 21.4-.9 30L32 46.1l-.6-.6c-.4-.4-1.2-.4-1.6 0l-22 22c-.4.4-.4 1.2 0 1.6l3 3c.4.4 1.2.4 1.6 0l22-22c.4-.4.4-1.2 0-1.6l-.5-.5 2.2-2.2c8.6 7.6 21.8 7.3 30-.9 8.5-8.5 8.5-22.5 0-31-4.3-4.3-9.9-6.4-15.5-6.4zm0 5.6c4.2 0 8.3 1.6 11.5 4.8 6.4 6.4 6.4 16.6 0 23-6.4 6.4-16.6 6.4-23 0-6.4-6.4-6.4-16.6 0-23 3.2-3.2 7.3-4.8 11.5-4.8z"/></svg>